<svg width="24" height="24" viewBox="0 0 24 24" fill="none" xmlns="http://www.w3.org/2000/svg">
<circle opacity="0.1" cx="12" cy="12" r="12" fill="#2B2C30"/>
<path d="M12 0C14.8558 3.40552e-08 17.618 1.01849 19.7902 2.87244C21.9624 4.72639 23.4023 7.29426 23.851 10.1146C24.2997 12.9349 23.7278 15.8229 22.2382 18.2594C20.7485 20.6959 18.4388 22.5213 15.724 23.4075C13.0092 24.2938 10.0673 24.1828 7.42695 23.0945C4.78664 22.0062 2.62102 20.0119 1.31924 17.47C0.0174532 14.9282 -0.335138 12.0054 0.324822 9.22688C0.984781 6.44837 2.61402 3.99631 4.91978 2.31132L12 12L12 0Z" fill="#FF1C1C"/>
<circle cx="12" cy="12" r="10" fill="white"/>
</svg>
