<?xml version="1.0" encoding="utf-8"?>
<!-- Generator: Adobe Illustrator 27.4.0, SVG Export Plug-In . SVG Version: 6.00 Build 0)  -->
<svg height="500" version="1.1" id="Слой_1" xmlns="http://www.w3.org/2000/svg" xmlns:xlink="http://www.w3.org/1999/xlink" x="0px" y="0px"
	 viewBox="0 0 2000 2000" style="enable-background:new 0 0 2000 2000;" xml:space="preserve">
<style type="text/css">
	.st0{fill:#E5E5E5;}
	.st1{fill:#E7ECF2;}
	.st2{fill:#5C5049;}
	.st3{fill:#C9C5B4;}
	.st4{fill:#292C47;}
	.st5{fill:#D4C3BD;}
	.st6{fill:#DE9673;}
	.st7{fill:#31B1DD;}
	.st8{fill:#EEA886;}
	.st9{fill:#BCADA0;}
	.st10{fill:#E6D3CC;}
	.st11{fill:#DED1C5;}
	.st12{fill:#BC8551;}
	.st13{fill:#A77860;}
	.st14{opacity:0.72;fill:#FFFFFF;}
	.st15{fill:#807066;}
	.st16{fill:#7D776B;}
	.st17{fill:#736D38;}
	.st18{fill:#477830;}
	.st19{fill:#92B856;}
	.st20{fill:#367031;}
	.st21{fill:#5B802A;}
	.st22{fill:#4B5E26;}
	.st23{fill:#3A472D;}
	.st24{fill:#6A8F39;}
	.st25{fill:#46402B;}
	.st26{fill:#706C3A;}
	.st27{fill:#858045;}
	.st28{fill:url(#SVGID_1_);}
	.st29{filter:url(#Adobe_OpacityMaskFilter);}
	.st30{filter:url(#Adobe_OpacityMaskFilter_00000124846810366176867550000013169775444994805894_);}
	
		.st31{mask:url(#SVGID_00000074413455692616794310000008050358748705476785_);fill:url(#SVGID_00000040535822944711095340000018256250205797819056_);}
	.st32{fill:url(#SVGID_00000041288415037193829620000011686223281865544364_);}
	.st33{fill:url(#SVGID_00000169519538896078067070000011845632000433408923_);}
	.st34{fill:url(#SVGID_00000153698293270173117240000010698171533285906103_);}
	.st35{fill:url(#SVGID_00000019662596064504619570000000597548794053026221_);}
	.st36{fill:#4167AA;}
	.st37{fill:#343D5B;}
	.st38{fill:#8697BF;}
	.st39{fill:#FFFFFF;}
	.st40{fill:#C3C9E0;}
</style>
<ellipse class="st0" cx="1095.3" cy="1930.1" rx="865.3" ry="32.6"/>
<g>
	<ellipse class="st1" cx="625.6" cy="207" rx="259.7" ry="166"/>
	<ellipse class="st1" cx="891.9" cy="351.7" rx="63.3" ry="40.5"/>
	<ellipse class="st1" cx="1004.6" cy="411.2" rx="36.8" ry="23.5"/>
	<g>
		<g>
			<polygon class="st2" points="1391.2,1901.5 1317.8,1353.2 1332,1351 1405.4,1899.3 			"/>
		</g>
		<g>
			<polygon class="st2" points="1301.6,1901.5 1228.2,1353.2 1242.3,1351 1315.7,1899.3 			"/>
		</g>
		<g>
			<polygon class="st2" points="860,1901.5 845.9,1899.3 919.3,1351 933.4,1353.2 			"/>
		</g>
		<path class="st3" d="M1340.8,1358.2l57.5-605.1c0,0-100.6-13.2-161.4-9.9l-91.3,615H1340.8z"/>
		<rect x="1145.6" y="1327.4" class="st3" width="195.2" height="30.7"/>
		<path class="st3" d="M1017.9,1333.5l-30.5-576.6c0,0,254.6-27.6,410.9-3.8L1017.9,1333.5z"/>
		<path class="st4" d="M1221.2,570.2c0,0,39.3-115.3-35.7-151c-75-35.7-138.7,15.9-150.7,43.9c-12,28-8.8,78.8,1.4,114.2
			c10.3,35.4,8.8,89.4-13.5,107.4c-22.3,18-49.9,48-48.6,109C974.9,831.6,1123,697,1123,697L1221.2,570.2z"/>
		<path class="st5" d="M1121.1,1810.7c0,0-2.3,81.5,9.3,86.4c11.6,4.9,55.7-23.4,75.1-51.4c19.4-28-24.3-93.2-31.5-129.2
			c-3-15.1-37.2-42.2-53.9-34.4c-16.7,7.8-28.9,27.7-28.9,27.7S1133.6,1738.7,1121.1,1810.7z"/>
		<g>
			<path class="st6" d="M1091.2,1709.7c0,0,14.4,27.8,21.9,49.4c7.4,21.6,8.8,81.3,13.5,85.5c4.7,4.1,41.6-14.5,46.5-36.8
				c4.9-22.3-10-67-24.3-90.5c-14.2-23.5-28.7-35.2-28.7-35.2S1094.9,1686.9,1091.2,1709.7z"/>
		</g>
		<polygon class="st5" points="1174,1716.4 1213.6,1774.2 1206.1,1779.4 1175.4,1734.7 		"/>
		<path class="st6" d="M1031.2,1076.6c0,0,19.4,32.7,0,56.6c-19.4,23.8-149.7,89.3-148.8,127.1c1,37.8,24.8,97,33.4,112
			c8.6,15,40.2,77.3,56.7,113.8c16.4,36.5,111.5,210.9,130.1,250.3c18.6,39.3,7.2-157.3,7.2-157.3l-95.1-278.9l222.2-216.5
			C1236.9,1083.8,1210,1023.9,1031.2,1076.6z"/>
		<path class="st7" d="M1115.8,707.3c0,0-61.7,13.7-86.1,28c-24.5,14.3-78.8,80.1-78.8,108.4c0,28.3,237.7,54.7,237.7,54.7l45,164.5
			c0,0,120.1-29.3,134.4-53.6c14.3-24.3-47.3-197.3-55.9-233.8c-8.6-36.5-53.5-61.1-103.6-68.1
			C1158.5,700.3,1115.8,707.3,1115.8,707.3z"/>
		<path class="st8" d="M1261.5,1082c0,0-4.3,28.1,7.2,40c11.4,11.9,64.1,81.4,36.2,149.7c-25.6,62.7-75.3,61.5-75.3,61.5h-76.9
			c0,0,22.3,112.8,15.1,187.2c-7.2,74.4-41.1,244.2-41.8,252.8c-0.7,8.6-32.5,35.4-41.8,21.8c0,0-0.9-102.3-5.9-140.9
			c-5-38.6-26.3-193.1-32.7-215.9c-6.4-22.9-44.3-92.2-44.3-99.4c0-7.2-37-119.1,43.8-147.7
			C1125.7,1162.6,1154.3,1082.6,1261.5,1082z"/>
		<rect x="1226.7" y="1040.7" class="st9" width="58.2" height="22.1"/>
		<path class="st10" d="M1045.8,1873.9c0,0-53,61.9-47.1,73c6,11.1,58,16.8,90.7,7.2c32.7-9.6,39.7-87.8,56.7-120.3
			c7.1-13.6-2.4-56.2-20.3-60.6c-17.9-4.5-39.8,3.4-39.8,3.4S1100.8,1825.9,1045.8,1873.9z"/>
		<g>
			<path class="st8" d="M1086.1,1776.6c0,0-6.2,30.7-14,52.1c-7.8,21.4-44.3,68.8-43.2,74.9c1,6.2,41.4,14.9,59.3,0.6
				c17.9-14.3,34.3-58.4,38-85.6c3.7-27.2-0.2-45.5-0.2-45.5S1103.3,1761.2,1086.1,1776.6z"/>
		</g>
		<polygon class="st10" points="1146.2,1833.9 1140.6,1903.8 1131.6,1903.1 1135.9,1849 		"/>
		<path class="st4" d="M1304.9,1271.8c-24.2,63.5-75.3,61.5-75.3,61.5h-76.9c0,0-32.1-50.8-110.6-59.6c-17.4-1.9-37.1-1.8-59.2,1.4
			c-0.3,0-0.5,0.1-0.8,0.1c-104.4,15.5-84.2,53.8-83.9,54.8c-8.7-21.2-17.8-54.9-15.6-73c10-82.6,129.4-100,148.8-123.8
			c19.4-23.8,0-56.6,0-56.6c178.8-52.7,205.7,7.1,205.7,7.1c7.8-1.1,27.9-12.7,36.5-12.7c0,0,9,19.5,15.3,37.2
			C1294.2,1123.8,1331.1,1202.8,1304.9,1271.8z"/>
		<polygon class="st11" points="1230.7,816.9 1257.1,1062.9 908.9,1062.9 882.5,816.9 		"/>
		<rect x="547.6" y="1062.9" class="st12" width="1086.5" height="33.5"/>
		<path class="st8" d="M1154.3,438.9c0,0,78,23.1,66.9,131.4c-11.1,108.3-62.1,102.7-66.9,103.5s-65.3,4.8-84.4-126.6
			C1050.8,415.8,1154.3,438.9,1154.3,438.9z"/>
		<path class="st8" d="M1191.5,653.8c0,0-4.1,35.8,2.8,58.1c6.9,22.3-90.9,22.9-90.8,4.6c0.1-20.8,10-38.2,0.6-73.9
			C1094.7,606.9,1191.5,653.8,1191.5,653.8z"/>
		<path class="st4" d="M1134.2,487.1c0,0,42.4,67.4,87,83.1c0,0,24.4-113.2-76.3-136.9c-100.6-23.7-84.9,114.3-77.3,151.1
			C1067.6,584.4,1088.5,530.3,1134.2,487.1z"/>
		<path class="st13" d="M1115.6,658.4c0,0,30.9,32.2,70.3,3.4c0,0-3.3,20.6-31.7,23.2C1125.9,687.6,1115.6,658.4,1115.6,658.4z"/>
		<path class="st14" d="M1077.3,477c0,0,22.3-43.2,60-45.1c37.7-1.9,60.1,30.8,60.1,30.8s-14.7-36.8-60-36.8
			C1092,425.8,1077.3,477,1077.3,477z"/>
		<path class="st8" d="M1204.2,706.8c0,0-1.4,74.9-60.8,77.2s-47.1-71.9-47.1-71.9S1139.8,694.5,1204.2,706.8z"/>
		<rect x="1609.5" y="1096.3" class="st15" width="24.6" height="833.8"/>
		<rect x="584.4" y="1096.3" class="st15" width="24.6" height="833.8"/>
	</g>
	<g>
		<polygon class="st16" points="782.6,947.4 782.1,953.4 780.2,973 779.7,977.9 779,986.1 778.5,991.1 774.5,1033.3 771.9,1060.6 
			771.7,1062.9 642.7,1062.9 642.3,1056.4 637.3,978.3 635.7,953.4 635.5,950 635.4,948.9 634.7,937.5 703.2,942.1 707,942.3 
			718.2,943.1 755.2,945.6 756.3,945.6 781.5,947.3 		"/>
		<path class="st17" d="M766,913.1l21.9-101.5c0,0-39.6,77.1-39.6,109.4S766,913.1,766,913.1z"/>
		<path class="st18" d="M755.6,907.4c0,0,21.9-142.7,6.2-185.4c0,0-31.2,142.2-28.1,191.1C736.8,962,755.6,907.4,755.6,907.4z"/>
		<path class="st19" d="M671.2,921c-4.2-25-36.5-93.2-36.5-93.2c-2.1,34.9,15.6,93.2,15.6,93.2S675.4,946,671.2,921z"/>
		<path class="st20" d="M682.6,918.9c-3.1-29.2-36.5-138.5-36.5-138.5c-4.2,28.1,15.6,138.5,15.6,138.5S685.8,948.1,682.6,918.9z"/>
		<path class="st21" d="M693.1,919.9c-2.1-12.5-28.8-207.2-28.8-207.2c-11.1,29.2,7.4,200.4,7.4,200.4
			C672.8,923.7,695.1,932.4,693.1,919.9z"/>
		<path class="st22" d="M703.5,913.1c0-16.2-20.5-247.3-20.5-247.3c-2.8,14.6-11.3,153.6-11.3,153.6l11,99.5
			C682.6,918.9,703.5,929.3,703.5,913.1z"/>
		<path class="st23" d="M741.1,708.5c0,0-34.5,184.7-32.4,213.7c2.1,29,35.6,40.6,32.4-90.2C741.1,832,743.3,732.5,741.1,708.5z"/>
		<path class="st24" d="M733.5,811.6c0,0-3-58.3-8.1-78.1c0,0-25,177.9-21.8,192.6C706.6,940.8,728.9,897.9,733.5,811.6z"/>
		<path class="st25" d="M718.3,856.1c5.5-63.6-20.1-161.1-20.1-161.1c-7.3,14.6-10.7,99-10.7,99s9.7,138.4,15.6,148.1
			C709.2,951.8,712.9,919.7,718.3,856.1z"/>
		<path class="st26" d="M782.6,947.4l-0.6,6l-1.8,19.6l-0.5,4.9l-0.8,8.2l-0.5,5c-7.4,1.6-18.7,5.6-31.7,15.9
			c-13.3,10.6-28.3,27.8-42.6,55.8h-61.5l-0.4-6.5l-4.9-78l-1.6-25l-0.2-3.3l-0.1-1.2l82.7-2.3l37-1l1.1,0.1l25.2,1.7L782.6,947.4z"
			/>
		<polygon class="st27" points="633.2,913.1 623.6,953.4 793.7,953.4 783,913.1 		"/>
	</g>
	<g>
		<linearGradient id="SVGID_1_" gradientUnits="userSpaceOnUse" x1="1422.1915" y1="1005.0831" x2="1553.8646" y2="1005.0831">
			<stop  offset="0" style="stop-color:#FF9F55"/>
			<stop  offset="1" style="stop-color:#FFD255"/>
		</linearGradient>
		<path class="st28" d="M1545.3,968.2c-7.5-5-17.9-3.8-25.2-2l2.6-18.9h-100.6l16.1,115.5h68.4l1.5-10.8l1.4-10.4
			c10.4-0.2,19.6-3.9,27.1-10.7c10.9-10,17.1-26,17.1-44C1553.9,976.2,1549.2,970.8,1545.3,968.2z M1529.3,1022.9
			c-5.1,4.7-11.2,7.3-18.2,7.7l7.3-52.5c5.4-1.8,15.6-4.2,20.7-0.8c0.9,0.6,3.7,2.4,3.7,9.6C1542.9,1001.9,1538,1015,1529.3,1022.9z
			"/>
		<defs>
			<filter id="Adobe_OpacityMaskFilter" filterUnits="userSpaceOnUse" x="1422.2" y="947.3" width="84.5" height="115.5">
				<feFlood  style="flood-color:white;flood-opacity:1" result="back"/>
				<feBlend  in="SourceGraphic" in2="back" mode="normal"/>
			</filter>
		</defs>
		
			<mask maskUnits="userSpaceOnUse" x="1422.2" y="947.3" width="84.5" height="115.5" id="SVGID_00000155857316478085437720000006706209413761263541_">
			<g class="st29">
				<defs>
					
						<filter id="Adobe_OpacityMaskFilter_00000116916698491517757410000012574546715424378803_" filterUnits="userSpaceOnUse" x="1422.2" y="947.3" width="84.5" height="115.5">
						<feFlood  style="flood-color:white;flood-opacity:1" result="back"/>
						<feBlend  in="SourceGraphic" in2="back" mode="normal"/>
					</filter>
				</defs>
				
					<mask maskUnits="userSpaceOnUse" x="1422.2" y="947.3" width="84.5" height="115.5" id="SVGID_00000155857316478085437720000006706209413761263541_">
					<g style="filter:url(#Adobe_OpacityMaskFilter_00000116916698491517757410000012574546715424378803_);">
					</g>
				</mask>
				
					<linearGradient id="SVGID_00000049929820711879837990000013870677708582025914_" gradientUnits="userSpaceOnUse" x1="1426.2119" y1="1075.1029" x2="1475.132" y2="985.4921">
					<stop  offset="0" style="stop-color:#FFFFFF"/>
					<stop  offset="1" style="stop-color:#000000"/>
				</linearGradient>
				
					<path style="mask:url(#SVGID_00000155857316478085437720000006706209413761263541_);fill:url(#SVGID_00000049929820711879837990000013870677708582025914_);" d="
					M1506.7,1062.9L1506.7,1062.9h-68.4l-16.1-115.5h37C1459.2,947.3,1445.9,1051.6,1506.7,1062.9
					C1506.7,1062.9,1506.7,1062.8,1506.7,1062.9z"/>
			</g>
		</mask>
		
			<linearGradient id="SVGID_00000081606893315051784940000007941269307270563749_" gradientUnits="userSpaceOnUse" x1="1426.2119" y1="1075.1029" x2="1475.132" y2="985.4921">
			<stop  offset="0" style="stop-color:#FFA155"/>
			<stop  offset="1" style="stop-color:#FFA155"/>
		</linearGradient>
		<path style="fill:url(#SVGID_00000081606893315051784940000007941269307270563749_);" d="M1506.7,1062.9L1506.7,1062.9h-68.4
			l-16.1-115.5h37C1459.2,947.3,1445.9,1051.6,1506.7,1062.9C1506.7,1062.9,1506.7,1062.8,1506.7,1062.9z"/>
		
			<linearGradient id="SVGID_00000172416896589892911370000017273165975358550712_" gradientUnits="userSpaceOnUse" x1="1442.8276" y1="948.067" x2="1474.4688" y2="890.1075">
			<stop  offset="5.181350e-03" style="stop-color:#E6E6E6"/>
			<stop  offset="1" style="stop-color:#FFDCC2"/>
		</linearGradient>
		<path style="fill:url(#SVGID_00000172416896589892911370000017273165975358550712_);" d="M1468.5,867.8c0,0-21.2,7.1-13.3,25.9
			c7.8,18.8,21.3,30.6,8.6,53.7c0,0,23.5-14.1,12.5-37.6C1465.3,886.2,1458.7,879.5,1468.5,867.8z"/>
		
			<linearGradient id="SVGID_00000029734162954395463230000007793485061136301447_" gradientUnits="userSpaceOnUse" x1="1479.9866" y1="947.8657" x2="1503.1964" y2="905.3503">
			<stop  offset="5.181350e-03" style="stop-color:#E6E6E6"/>
			<stop  offset="1" style="stop-color:#FFDCC2"/>
		</linearGradient>
		<path style="fill:url(#SVGID_00000029734162954395463230000007793485061136301447_);" d="M1498.8,889c0,0-15.5,5.2-9.8,19
			c5.7,13.8,15.6,22.5,6.3,39.4c0,0,17.2-10.4,9.2-27.6C1496.5,902.5,1491.6,897.6,1498.8,889z"/>
		
			<linearGradient id="SVGID_00000123403030526816092550000016361671507364842927_" gradientUnits="userSpaceOnUse" x1="1423.5844" y1="947.8652" x2="1446.7939" y2="905.3503">
			<stop  offset="5.181350e-03" style="stop-color:#E6E6E6"/>
			<stop  offset="1" style="stop-color:#FFDCC2"/>
		</linearGradient>
		<path style="fill:url(#SVGID_00000123403030526816092550000016361671507364842927_);" d="M1442.4,889c0,0-15.5,5.2-9.8,19
			c5.7,13.8,15.6,22.5,6.3,39.4c0,0,17.2-10.4,9.2-27.6C1440.1,902.5,1435.2,897.6,1442.4,889z"/>
	</g>
	<g>
		<g>
			<path class="st36" d="M646,184h-49.2c-4.4,0-7.9-3.6-7.9-7.9v-40.6c0-4.4,3.6-7.9,7.9-7.9H646c4.4,0,7.9,3.6,7.9,7.9V176
				C653.9,180.4,650.4,184,646,184z"/>
			<path class="st37" d="M624.9,157.4l4.1,11.3h-15.2l4-11.4c-2.4-1.3-4-3.8-4-6.7c0-4.2,3.4-7.6,7.6-7.6c4.2,0,7.6,3.4,7.6,7.6
				C629,153.6,627.3,156.1,624.9,157.4z"/>
			<path class="st38" d="M646.5,127.5h-11v-12.7c0-8-6.5-14.4-14.4-14.4c-8,0-14.4,6.5-14.4,14.4v6.4h-11v-6.4
				c0-14,11.4-25.4,25.4-25.4s25.4,11.4,25.4,25.4V127.5z"/>
		</g>
		<path class="st39" d="M744.9,260.3h-251c-4.4,0-7.9-3.6-7.9-7.9v-23.8c0-4.4,3.6-7.9,7.9-7.9h251c4.4,0,7.9,3.6,7.9,7.9v23.8
			C752.9,256.8,749.3,260.3,744.9,260.3z"/>
		<path class="st39" d="M744.9,318.4h-251c-4.4,0-7.9-3.6-7.9-7.9v-23.8c0-4.4,3.6-7.9,7.9-7.9h251c4.4,0,7.9,3.6,7.9,7.9v23.8
			C752.9,314.8,749.3,318.4,744.9,318.4z"/>
		<path class="st40" d="M720.1,246H519.4c-2.8,0-5-2.3-5-5c0-2.8,2.3-5,5-5h200.7c2.8,0,5,2.3,5,5C725.1,243.7,722.8,246,720.1,246z
			"/>
		<path class="st40" d="M557.6,300c0,2.8-2.3,5.1-5.1,5.1c-2.8,0-5.1-2.3-5.1-5.1c0-2.8,2.3-5.1,5.1-5.1
			C555.3,294.9,557.6,297.1,557.6,300z"/>
		<path class="st40" d="M576.8,300c0,2.8-2.3,5.1-5.1,5.1c-2.8,0-5.1-2.3-5.1-5.1c0-2.8,2.3-5.1,5.1-5.1
			C574.5,294.9,576.8,297.1,576.8,300z"/>
		<path class="st40" d="M596.1,300c0,2.8-2.3,5.1-5.1,5.1c-2.8,0-5.1-2.3-5.1-5.1c0-2.8,2.3-5.1,5.1-5.1
			C593.8,294.9,596.1,297.1,596.1,300z"/>
		<path class="st40" d="M615.3,300c0,2.8-2.3,5.1-5.1,5.1c-2.8,0-5.1-2.3-5.1-5.1c0-2.8,2.3-5.1,5.1-5.1
			C613,294.9,615.3,297.1,615.3,300z"/>
		<path class="st40" d="M634.5,300c0,2.8-2.3,5.1-5.1,5.1c-2.8,0-5.1-2.3-5.1-5.1c0-2.8,2.3-5.1,5.1-5.1
			C632.3,294.9,634.5,297.1,634.5,300z"/>
		<path class="st40" d="M653.8,300c0,2.8-2.3,5.1-5.1,5.1s-5.1-2.3-5.1-5.1c0-2.8,2.3-5.1,5.1-5.1S653.8,297.1,653.8,300z"/>
		<path class="st40" d="M673,300c0,2.8-2.3,5.1-5.1,5.1c-2.8,0-5.1-2.3-5.1-5.1c0-2.8,2.3-5.1,5.1-5.1
			C670.7,294.9,673,297.1,673,300z"/>
		<path class="st40" d="M692.3,300c0,2.8-2.3,5.1-5.1,5.1c-2.8,0-5.1-2.3-5.1-5.1c0-2.8,2.3-5.1,5.1-5.1
			C690,294.9,692.3,297.1,692.3,300z"/>
	</g>
</g>
</svg>
